<svg width="32" height="32" viewBox="0 0 32 32" fill="none" xmlns="http://www.w3.org/2000/svg">
<path d="M16.0001 18.6666C18.2134 18.6666 20.0001 16.88 20.0001 14.6666V6.66663C20.0001 4.45329 18.2134 2.66663 16.0001 2.66663C13.7867 2.66663 12.0001 4.45329 12.0001 6.66663V14.6666C12.0001 16.88 13.7867 18.6666 16.0001 18.6666ZM23.8801 14.6666C23.2267 14.6666 22.6801 15.1466 22.5734 15.8C22.0267 18.9333 19.2934 21.3333 16.0001 21.3333C12.7067 21.3333 9.9734 18.9333 9.42673 15.8C9.32006 15.1466 8.7734 14.6666 8.12006 14.6666C7.30673 14.6666 6.66673 15.3866 6.78673 16.1866C7.44006 20.1866 10.6401 23.32 14.6667 23.8933V26.6666C14.6667 27.4 15.2667 28 16.0001 28C16.7334 28 17.3334 27.4 17.3334 26.6666V23.8933C21.3601 23.32 24.5601 20.1866 25.2134 16.1866C25.3467 15.3866 24.6934 14.6666 23.8801 14.6666Z" fill="white"/>
</svg>
