<svg width="16" height="16" viewBox="0 0 16 16" fill="none" xmlns="http://www.w3.org/2000/svg">
<g clip-path="url(#clip0_30201_59)">
<path d="M7.99996 2.66666C4.66663 2.66666 1.81996 4.73999 0.666626 7.66666C1.81996 10.5933 4.66663 12.6667 7.99996 12.6667C11.3333 12.6667 14.18 10.5933 15.3333 7.66666C14.18 4.73999 11.3333 2.66666 7.99996 2.66666ZM7.99996 11C6.15996 11 4.66663 9.50666 4.66663 7.66666C4.66663 5.82666 6.15996 4.33332 7.99996 4.33332C9.83996 4.33332 11.3333 5.82666 11.3333 7.66666C11.3333 9.50666 9.83996 11 7.99996 11ZM7.99996 5.66666C6.89329 5.66666 5.99996 6.55999 5.99996 7.66666C5.99996 8.77332 6.89329 9.66666 7.99996 9.66666C9.10663 9.66666 9.99996 8.77332 9.99996 7.66666C9.99996 6.55999 9.10663 5.66666 7.99996 5.66666Z" fill="#6D747A"/>
</g>
<defs>
<clipPath id="clip0_30201_59">
<rect width="16" height="16" fill="white"/>
</clipPath>
</defs>
</svg>
